<?xml version="1.0" standalone="no"?>
<!DOCTYPE svg PUBLIC "-//W3C//DTD SVG 20010904//EN"
 "http://www.w3.org/TR/2001/REC-SVG-20010904/DTD/svg10.dtd">
<svg version="1.0" xmlns="http://www.w3.org/2000/svg"
 width="200.000000pt" height="200.000000pt" viewBox="0 0 200.000000 200.000000"
 preserveAspectRatio="xMidYMid meet">

<g transform="translate(0.000000,200.000000) scale(0.100000,-0.100000)"
fill="#000000" stroke="none">
<path d="M830 1434 c-99 -26 -211 -88 -269 -149 l-52 -55 21 -29 c52 -74 202
-144 332 -155 l63 -6 -70 23 c-38 13 -88 33 -111 45 -57 29 -144 100 -144 116
0 22 78 84 151 121 186 95 410 97 594 6 48 -24 70 -31 55 -19 -37 31 -156 85
-225 103 -76 19 -270 19 -345 -1z"/>
<path d="M924 1371 c-56 -25 -87 -71 -92 -138 -5 -64 9 -103 54 -143 76 -66
173 -62 239 11 19 21 37 50 41 64 11 45 -2 121 -26 155 -27 38 -91 70 -140 70
-19 0 -53 -9 -76 -19z m128 -20 c13 -5 36 -21 51 -37 l28 -28 -65 -33 -66 -33
-66 33 -65 33 28 28 c15 16 37 32 48 37 27 11 79 11 107 0z m10 -168 c32 -16
58 -33 58 -40 0 -17 -47 -51 -86 -62 -21 -6 -47 -6 -68 0 -39 11 -86 45 -86
62 0 11 92 64 115 67 6 0 36 -12 67 -27z"/>
<path d="M1139 1374 c76 -20 181 -78 230 -126 l41 -42 -27 -29 c-141 -151
-448 -209 -667 -126 -65 24 -71 18 -9 -9 99 -42 173 -56 298 -55 101 0 133 4
201 27 44 14 107 43 140 64 62 41 134 109 134 128 0 22 -87 97 -146 125 -60
29 -176 59 -224 58 -15 0 -2 -6 29 -15z"/>
<path d="M610 1096 c0 -3 9 -10 20 -16 11 -6 20 -8 20 -6 0 3 -9 10 -20 16
-11 6 -20 8 -20 6z"/>
<path d="M330 872 c0 -4 14 -29 30 -57 16 -27 30 -60 30 -72 0 -14 6 -23 15
-23 9 0 15 9 15 25 0 14 13 46 30 73 25 39 27 48 13 51 -9 1 -20 -3 -24 -10
-4 -8 -14 -23 -22 -33 -13 -18 -15 -18 -32 12 -16 27 -55 51 -55 34z"/>
<path d="M524 870 c-28 -11 -54 -48 -54 -75 0 -29 27 -64 57 -76 32 -12 89 5
103 31 16 30 12 85 -8 103 -23 21 -70 29 -98 17z m66 -38 c47 -38 -5 -111 -56
-77 -31 20 -32 59 -2 79 28 20 31 20 58 -2z"/>
<path d="M770 820 c0 -65 -17 -87 -52 -69 -14 8 -18 22 -18 64 0 48 -2 55 -20
55 -18 0 -20 -7 -20 -54 0 -69 22 -100 73 -100 54 0 67 17 67 89 0 47 -4 64
-15 69 -12 4 -15 -5 -15 -54z"/>
<path d="M830 795 c0 -68 2 -75 20 -75 13 0 20 7 20 20 0 12 7 20 18 20 9 0
23 -9 30 -20 7 -11 19 -20 27 -20 18 0 19 12 4 27 -8 8 -7 17 5 34 36 52 6 89
-72 89 l-52 0 0 -75z m93 36 c16 -16 -1 -41 -28 -41 -21 0 -25 5 -25 29 0 25
3 29 22 26 12 -3 26 -9 31 -14z"/>
<path d="M990 795 c0 -68 2 -75 19 -75 16 0 20 8 23 46 l3 47 33 -47 c20 -27
41 -46 53 -46 17 0 19 7 19 75 0 68 -2 75 -20 75 -17 0 -20 -7 -20 -42 l0 -43
-36 43 c-20 23 -44 42 -55 42 -17 0 -19 -8 -19 -75z"/>
<path d="M1197 816 c-38 -82 -41 -96 -22 -96 8 0 18 7 21 15 8 21 73 20 89 -1
6 -9 18 -15 27 -13 13 3 10 16 -18 77 -42 92 -62 96 -97 18z m53 5 c0 -5 3
-16 6 -25 4 -12 0 -16 -16 -16 -16 0 -20 4 -16 16 3 9 6 20 6 25 0 5 5 9 10 9
6 0 10 -4 10 -9z"/>
<path d="M1350 795 c0 -59 3 -75 14 -75 10 0 16 14 18 43 l3 42 24 -40 c23
-39 23 -40 40 -19 9 12 21 30 28 40 10 16 12 13 12 -23 1 -36 4 -43 20 -43 18
0 20 7 18 75 -2 91 -21 100 -62 29 l-27 -47 -29 47 c-44 70 -59 62 -59 -29z"/>
<path d="M1550 795 l0 -75 66 0 c48 0 65 3 62 13 -3 6 -23 13 -46 15 -54 4
-60 32 -7 32 24 0 35 5 35 15 0 10 -11 15 -35 15 -29 0 -35 4 -35 21 0 19 4
20 40 15 31 -4 40 -2 40 9 0 12 -14 15 -60 15 l-60 0 0 -75z"/>
<path d="M514 645 c-8 -19 3 -35 26 -35 19 0 30 17 23 38 -6 17 -42 15 -49 -3z
m36 -10 c0 -8 -7 -15 -15 -15 -8 0 -15 7 -15 15 0 8 7 15 15 15 8 0 15 -7 15
-15z"/>
<path d="M680 636 c0 -22 3 -24 23 -17 12 5 22 15 22 22 0 8 -10 15 -22 17
-19 3 -23 -1 -23 -22z m30 4 c0 -5 -2 -10 -4 -10 -3 0 -8 5 -11 10 -3 6 -1 10
4 10 6 0 11 -4 11 -10z"/>
<path d="M848 635 c2 -14 8 -25 12 -25 4 0 10 11 12 25 4 19 1 25 -12 25 -13
0 -16 -6 -12 -25z"/>
<path d="M1002 635 c0 -16 2 -22 5 -12 2 9 2 23 0 30 -3 6 -5 -1 -5 -18z"/>
<path d="M1128 648 c-8 -22 3 -38 25 -37 17 1 18 2 5 6 -10 2 -18 11 -18 18 0
7 8 16 18 18 13 4 12 5 -4 6 -12 0 -24 -5 -26 -11z"/>
<path d="M1293 637 c-10 -22 -9 -24 17 -24 24 0 27 3 21 21 -11 29 -26 30 -38
3z"/>
<path d="M1450 635 c0 -19 5 -25 23 -24 12 0 16 3 10 6 -7 2 -13 13 -13 24 0
10 -4 19 -10 19 -5 0 -10 -11 -10 -25z"/>
</g>
</svg>
